<mxfile host="Electron" modified="2023-11-13T16:43:13.307Z" agent="Mozilla/5.0 (Windows NT 10.0; Win64; x64) AppleWebKit/537.36 (KHTML, like Gecko) draw.io/22.0.3 Chrome/114.0.5735.289 Electron/25.8.4 Safari/537.36" etag="66gMhIOAS273zwEWl8LH" version="22.0.3" type="device" pages="2">
  <diagram name="NAND" id="uHUrfIVvx9b2arXOunB7">
    <mxGraphModel dx="669" dy="384" grid="1" gridSize="10" guides="1" tooltips="1" connect="1" arrows="1" fold="1" page="1" pageScale="1" pageWidth="850" pageHeight="1100" math="1" shadow="0">
      <root>
        <mxCell id="0" />
        <mxCell id="1" parent="0" />
        <mxCell id="IYB7c07VLsNItse6oDtJ-53" value="$$&lt;br&gt;\overline {\overline&amp;nbsp;a \cdot \overline&amp;nbsp;b} &lt;br&gt;= a + b&lt;br&gt;$$" style="text;html=1;align=center;verticalAlign=middle;resizable=0;points=[];autosize=1;strokeColor=none;fillColor=none;fontColor=#EA6B66;connectable=0;" parent="1" vertex="1">
          <mxGeometry x="490" y="490" width="220" height="70" as="geometry" />
        </mxCell>
        <mxCell id="IYB7c07VLsNItse6oDtJ-37" value="" style="verticalLabelPosition=bottom;shadow=0;dashed=0;align=center;html=1;verticalAlign=top;shape=mxgraph.electrical.logic_gates.logic_gate;operation=and;negating=1;negSize=0.15;" parent="1" vertex="1">
          <mxGeometry x="810" y="280" width="70" height="40" as="geometry" />
        </mxCell>
        <mxCell id="IYB7c07VLsNItse6oDtJ-22" value="" style="verticalLabelPosition=bottom;shadow=0;dashed=0;align=center;html=1;verticalAlign=top;shape=mxgraph.electrical.logic_gates.logic_gate;operation=and;negating=1;negSize=0.15;" parent="1" vertex="1">
          <mxGeometry x="210" y="280" width="70" height="40" as="geometry" />
        </mxCell>
        <mxCell id="IYB7c07VLsNItse6oDtJ-24" value="$$&lt;br&gt;a&lt;br&gt;$$" style="text;html=1;align=center;verticalAlign=middle;resizable=0;points=[];autosize=1;strokeColor=none;fillColor=none;fontColor=#5E81AC;connectable=0;" parent="1" vertex="1">
          <mxGeometry x="130" y="270" width="40" height="60" as="geometry" />
        </mxCell>
        <mxCell id="IYB7c07VLsNItse6oDtJ-25" style="edgeStyle=orthogonalEdgeStyle;rounded=0;orthogonalLoop=1;jettySize=auto;html=1;endArrow=none;endFill=0;strokeColor=#5E81AC;fontColor=#5E81AC;" parent="1" edge="1">
          <mxGeometry relative="1" as="geometry">
            <mxPoint x="160" y="300" as="targetPoint" />
            <mxPoint x="200" y="300" as="sourcePoint" />
            <Array as="points">
              <mxPoint x="181" y="300" />
              <mxPoint x="181" y="300" />
            </Array>
          </mxGeometry>
        </mxCell>
        <mxCell id="IYB7c07VLsNItse6oDtJ-26" style="edgeStyle=orthogonalEdgeStyle;rounded=0;orthogonalLoop=1;jettySize=auto;html=1;exitX=1;exitY=0.5;exitDx=0;exitDy=0;exitPerimeter=0;endArrow=none;endFill=0;strokeColor=#EA6B66;" parent="1" edge="1">
          <mxGeometry relative="1" as="geometry">
            <mxPoint x="330" y="300" as="targetPoint" />
            <mxPoint x="280" y="300" as="sourcePoint" />
          </mxGeometry>
        </mxCell>
        <mxCell id="IYB7c07VLsNItse6oDtJ-27" value="$$&lt;br&gt;\overline a&lt;br&gt;$$" style="text;html=1;align=center;verticalAlign=middle;resizable=0;points=[];autosize=1;strokeColor=none;fillColor=none;fontColor=#EA6B66;connectable=0;" parent="1" vertex="1">
          <mxGeometry x="300" y="270" width="80" height="60" as="geometry" />
        </mxCell>
        <mxCell id="IYB7c07VLsNItse6oDtJ-21" value="" style="verticalLabelPosition=bottom;shadow=0;dashed=0;align=center;html=1;verticalAlign=top;shape=mxgraph.electrical.logic_gates.logic_gate;operation=and;" parent="1" vertex="1">
          <mxGeometry x="810" y="120" width="70" height="40" as="geometry" />
        </mxCell>
        <mxCell id="jRbW4b_myETGWLnF5Oeu-59" value="$$&lt;br&gt;a&lt;br&gt;$$" style="text;html=1;align=center;verticalAlign=middle;resizable=0;points=[];autosize=1;strokeColor=none;fillColor=none;fontColor=#5E81AC;connectable=0;" parent="1" vertex="1">
          <mxGeometry x="130" y="110" width="40" height="60" as="geometry" />
        </mxCell>
        <mxCell id="IYB7c07VLsNItse6oDtJ-3" style="edgeStyle=orthogonalEdgeStyle;rounded=0;orthogonalLoop=1;jettySize=auto;html=1;exitX=0;exitY=0.5;exitDx=0;exitDy=0;exitPerimeter=0;endArrow=none;endFill=0;strokeColor=#5E81AC;" parent="1" source="IYB7c07VLsNItse6oDtJ-1" edge="1">
          <mxGeometry relative="1" as="geometry">
            <mxPoint x="160" y="140" as="targetPoint" />
          </mxGeometry>
        </mxCell>
        <mxCell id="IYB7c07VLsNItse6oDtJ-5" style="edgeStyle=orthogonalEdgeStyle;rounded=0;orthogonalLoop=1;jettySize=auto;html=1;exitX=1;exitY=0.5;exitDx=0;exitDy=0;exitPerimeter=0;endArrow=none;endFill=0;strokeColor=#EA6B66;" parent="1" source="IYB7c07VLsNItse6oDtJ-1" edge="1">
          <mxGeometry relative="1" as="geometry">
            <mxPoint x="330" y="140" as="targetPoint" />
          </mxGeometry>
        </mxCell>
        <mxCell id="IYB7c07VLsNItse6oDtJ-1" value="" style="verticalLabelPosition=bottom;shadow=0;dashed=0;align=center;html=1;verticalAlign=top;shape=mxgraph.electrical.logic_gates.inverter_2" parent="1" vertex="1">
          <mxGeometry x="210" y="120" width="70" height="40" as="geometry" />
        </mxCell>
        <mxCell id="IYB7c07VLsNItse6oDtJ-2" value="$$&lt;br&gt;\overline a&lt;br&gt;$$" style="text;html=1;align=center;verticalAlign=middle;resizable=0;points=[];autosize=1;strokeColor=none;fillColor=none;fontColor=#EA6B66;connectable=0;" parent="1" vertex="1">
          <mxGeometry x="300" y="110" width="80" height="60" as="geometry" />
        </mxCell>
        <mxCell id="IYB7c07VLsNItse6oDtJ-6" value="$$&lt;br&gt;a&lt;br&gt;$$" style="text;html=1;align=center;verticalAlign=middle;resizable=0;points=[];autosize=1;strokeColor=none;fillColor=none;fontColor=#5E81AC;connectable=0;" parent="1" vertex="1">
          <mxGeometry x="410" y="100" width="40" height="60" as="geometry" />
        </mxCell>
        <mxCell id="IYB7c07VLsNItse6oDtJ-7" style="edgeStyle=orthogonalEdgeStyle;rounded=0;orthogonalLoop=1;jettySize=auto;html=1;exitX=0;exitY=0.5;exitDx=0;exitDy=0;exitPerimeter=0;endArrow=none;endFill=0;strokeColor=#5E81AC;fontColor=#5E81AC;" parent="1" edge="1">
          <mxGeometry relative="1" as="geometry">
            <mxPoint x="440" y="130" as="targetPoint" />
            <mxPoint x="490" y="130" as="sourcePoint" />
          </mxGeometry>
        </mxCell>
        <mxCell id="IYB7c07VLsNItse6oDtJ-8" style="edgeStyle=orthogonalEdgeStyle;rounded=0;orthogonalLoop=1;jettySize=auto;html=1;exitX=1;exitY=0.5;exitDx=0;exitDy=0;exitPerimeter=0;endArrow=none;endFill=0;strokeColor=#EA6B66;" parent="1" edge="1">
          <mxGeometry relative="1" as="geometry">
            <mxPoint x="610" y="140" as="targetPoint" />
            <mxPoint x="560" y="140" as="sourcePoint" />
          </mxGeometry>
        </mxCell>
        <mxCell id="IYB7c07VLsNItse6oDtJ-10" value="$$&lt;br&gt;a + b&lt;br&gt;$$" style="text;html=1;align=center;verticalAlign=middle;resizable=0;points=[];autosize=1;strokeColor=none;fillColor=none;fontColor=#EA6B66;connectable=0;" parent="1" vertex="1">
          <mxGeometry x="604" y="110" width="50" height="60" as="geometry" />
        </mxCell>
        <mxCell id="IYB7c07VLsNItse6oDtJ-11" value="" style="verticalLabelPosition=bottom;shadow=0;dashed=0;align=center;html=1;verticalAlign=top;shape=mxgraph.electrical.logic_gates.logic_gate;operation=or;" parent="1" vertex="1">
          <mxGeometry x="490" y="120" width="70" height="40" as="geometry" />
        </mxCell>
        <mxCell id="IYB7c07VLsNItse6oDtJ-12" value="$$&lt;br&gt;b&lt;br&gt;$$" style="text;html=1;align=center;verticalAlign=middle;resizable=0;points=[];autosize=1;strokeColor=none;fillColor=none;fontColor=#EBCB8B;connectable=0;" parent="1" vertex="1">
          <mxGeometry x="410" y="120" width="40" height="60" as="geometry" />
        </mxCell>
        <mxCell id="IYB7c07VLsNItse6oDtJ-13" style="edgeStyle=orthogonalEdgeStyle;rounded=0;orthogonalLoop=1;jettySize=auto;html=1;exitX=0;exitY=0.5;exitDx=0;exitDy=0;exitPerimeter=0;endArrow=none;endFill=0;strokeColor=#EBCB8B;fontColor=#EBCB8B;" parent="1" edge="1">
          <mxGeometry relative="1" as="geometry">
            <mxPoint x="440" y="150" as="targetPoint" />
            <mxPoint x="490" y="150" as="sourcePoint" />
          </mxGeometry>
        </mxCell>
        <mxCell id="IYB7c07VLsNItse6oDtJ-14" value="$$&lt;br&gt;a&lt;br&gt;$$" style="text;html=1;align=center;verticalAlign=middle;resizable=0;points=[];autosize=1;strokeColor=none;fillColor=none;fontColor=#5E81AC;connectable=0;" parent="1" vertex="1">
          <mxGeometry x="730" y="100" width="40" height="60" as="geometry" />
        </mxCell>
        <mxCell id="IYB7c07VLsNItse6oDtJ-15" style="edgeStyle=orthogonalEdgeStyle;rounded=0;orthogonalLoop=1;jettySize=auto;html=1;exitX=0;exitY=0.5;exitDx=0;exitDy=0;exitPerimeter=0;endArrow=none;endFill=0;strokeColor=#5E81AC;fontColor=#5E81AC;" parent="1" edge="1">
          <mxGeometry relative="1" as="geometry">
            <mxPoint x="760" y="130" as="targetPoint" />
            <mxPoint x="810" y="130" as="sourcePoint" />
          </mxGeometry>
        </mxCell>
        <mxCell id="IYB7c07VLsNItse6oDtJ-16" style="edgeStyle=orthogonalEdgeStyle;rounded=0;orthogonalLoop=1;jettySize=auto;html=1;exitX=1;exitY=0.5;exitDx=0;exitDy=0;exitPerimeter=0;endArrow=none;endFill=0;strokeColor=#EA6B66;" parent="1" edge="1">
          <mxGeometry relative="1" as="geometry">
            <mxPoint x="930" y="140" as="targetPoint" />
            <mxPoint x="880" y="140" as="sourcePoint" />
          </mxGeometry>
        </mxCell>
        <mxCell id="IYB7c07VLsNItse6oDtJ-17" value="$$&lt;br&gt;a \cdot b&lt;br&gt;$$" style="text;html=1;align=center;verticalAlign=middle;resizable=0;points=[];autosize=1;strokeColor=none;fillColor=none;fontColor=#EA6B66;connectable=0;" parent="1" vertex="1">
          <mxGeometry x="910" y="110" width="70" height="60" as="geometry" />
        </mxCell>
        <mxCell id="IYB7c07VLsNItse6oDtJ-19" value="$$&lt;br&gt;b&lt;br&gt;$$" style="text;html=1;align=center;verticalAlign=middle;resizable=0;points=[];autosize=1;strokeColor=none;fillColor=none;fontColor=#EBCB8B;connectable=0;" parent="1" vertex="1">
          <mxGeometry x="730" y="120" width="40" height="60" as="geometry" />
        </mxCell>
        <mxCell id="IYB7c07VLsNItse6oDtJ-20" style="edgeStyle=orthogonalEdgeStyle;rounded=0;orthogonalLoop=1;jettySize=auto;html=1;exitX=0;exitY=0.5;exitDx=0;exitDy=0;exitPerimeter=0;endArrow=none;endFill=0;strokeColor=#EBCB8B;fontColor=#EBCB8B;" parent="1" edge="1">
          <mxGeometry relative="1" as="geometry">
            <mxPoint x="760" y="150" as="targetPoint" />
            <mxPoint x="810" y="150" as="sourcePoint" />
          </mxGeometry>
        </mxCell>
        <mxCell id="IYB7c07VLsNItse6oDtJ-30" style="edgeStyle=orthogonalEdgeStyle;rounded=0;orthogonalLoop=1;jettySize=auto;html=1;exitX=0;exitY=0.25;exitDx=0;exitDy=0;exitPerimeter=0;endArrow=none;endFill=0;strokeColor=#5E81AC;fontColor=#5E81AC;entryX=0;entryY=0.75;entryDx=0;entryDy=0;entryPerimeter=0;" parent="1" source="IYB7c07VLsNItse6oDtJ-22" target="IYB7c07VLsNItse6oDtJ-22" edge="1">
          <mxGeometry relative="1" as="geometry">
            <mxPoint x="170" y="310" as="targetPoint" />
            <mxPoint x="220" y="310" as="sourcePoint" />
            <Array as="points">
              <mxPoint x="200" y="290" />
              <mxPoint x="200" y="310" />
            </Array>
          </mxGeometry>
        </mxCell>
        <mxCell id="IYB7c07VLsNItse6oDtJ-32" value="$$&lt;br&gt;a&lt;br&gt;$$" style="text;html=1;align=center;verticalAlign=middle;resizable=0;points=[];autosize=1;strokeColor=none;fillColor=none;fontColor=#5E81AC;connectable=0;" parent="1" vertex="1">
          <mxGeometry x="730" y="260" width="40" height="60" as="geometry" />
        </mxCell>
        <mxCell id="IYB7c07VLsNItse6oDtJ-33" style="edgeStyle=orthogonalEdgeStyle;rounded=0;orthogonalLoop=1;jettySize=auto;html=1;exitX=0;exitY=0.5;exitDx=0;exitDy=0;exitPerimeter=0;endArrow=none;endFill=0;strokeColor=#5E81AC;fontColor=#5E81AC;" parent="1" edge="1">
          <mxGeometry relative="1" as="geometry">
            <mxPoint x="760" y="290" as="targetPoint" />
            <mxPoint x="810" y="290" as="sourcePoint" />
          </mxGeometry>
        </mxCell>
        <mxCell id="IYB7c07VLsNItse6oDtJ-34" style="edgeStyle=orthogonalEdgeStyle;rounded=0;orthogonalLoop=1;jettySize=auto;html=1;exitX=1;exitY=0.5;exitDx=0;exitDy=0;exitPerimeter=0;endArrow=none;endFill=0;strokeColor=#A3BE8C;" parent="1" edge="1">
          <mxGeometry relative="1" as="geometry">
            <mxPoint x="930" y="300" as="targetPoint" />
            <mxPoint x="880" y="300" as="sourcePoint" />
          </mxGeometry>
        </mxCell>
        <mxCell id="IYB7c07VLsNItse6oDtJ-35" value="$$&lt;br&gt;b&lt;br&gt;$$" style="text;html=1;align=center;verticalAlign=middle;resizable=0;points=[];autosize=1;strokeColor=none;fillColor=none;fontColor=#EBCB8B;connectable=0;" parent="1" vertex="1">
          <mxGeometry x="730" y="280" width="40" height="60" as="geometry" />
        </mxCell>
        <mxCell id="IYB7c07VLsNItse6oDtJ-36" style="edgeStyle=orthogonalEdgeStyle;rounded=0;orthogonalLoop=1;jettySize=auto;html=1;exitX=0;exitY=0.5;exitDx=0;exitDy=0;exitPerimeter=0;endArrow=none;endFill=0;strokeColor=#EBCB8B;fontColor=#EBCB8B;" parent="1" edge="1">
          <mxGeometry relative="1" as="geometry">
            <mxPoint x="760" y="310" as="targetPoint" />
            <mxPoint x="810" y="310" as="sourcePoint" />
          </mxGeometry>
        </mxCell>
        <mxCell id="IYB7c07VLsNItse6oDtJ-38" value="" style="verticalLabelPosition=bottom;shadow=0;dashed=0;align=center;html=1;verticalAlign=top;shape=mxgraph.electrical.logic_gates.logic_gate;operation=and;negating=1;negSize=0.15;" parent="1" vertex="1">
          <mxGeometry x="939.97" y="280" width="70" height="40" as="geometry" />
        </mxCell>
        <mxCell id="IYB7c07VLsNItse6oDtJ-39" style="edgeStyle=orthogonalEdgeStyle;rounded=0;orthogonalLoop=1;jettySize=auto;html=1;exitX=0;exitY=0.25;exitDx=0;exitDy=0;exitPerimeter=0;endArrow=none;endFill=0;strokeColor=#A3BE8C;fontColor=#5E81AC;entryX=0;entryY=0.75;entryDx=0;entryDy=0;entryPerimeter=0;" parent="1" source="IYB7c07VLsNItse6oDtJ-38" target="IYB7c07VLsNItse6oDtJ-38" edge="1">
          <mxGeometry relative="1" as="geometry">
            <mxPoint x="899.97" y="310" as="targetPoint" />
            <mxPoint x="949.97" y="310" as="sourcePoint" />
            <Array as="points">
              <mxPoint x="929.97" y="290" />
              <mxPoint x="929.97" y="310" />
            </Array>
          </mxGeometry>
        </mxCell>
        <mxCell id="IYB7c07VLsNItse6oDtJ-40" style="edgeStyle=orthogonalEdgeStyle;rounded=0;orthogonalLoop=1;jettySize=auto;html=1;exitX=1;exitY=0.5;exitDx=0;exitDy=0;exitPerimeter=0;endArrow=none;endFill=0;strokeColor=#EA6B66;" parent="1" edge="1">
          <mxGeometry relative="1" as="geometry">
            <mxPoint x="1059.97" y="300" as="targetPoint" />
            <mxPoint x="1009.97" y="300" as="sourcePoint" />
          </mxGeometry>
        </mxCell>
        <mxCell id="IYB7c07VLsNItse6oDtJ-41" value="$$&lt;br&gt;a \cdot b&lt;br&gt;$$" style="text;html=1;align=center;verticalAlign=middle;resizable=0;points=[];autosize=1;strokeColor=none;fillColor=none;fontColor=#EA6B66;connectable=0;" parent="1" vertex="1">
          <mxGeometry x="1040" y="270" width="70" height="60" as="geometry" />
        </mxCell>
        <mxCell id="IYB7c07VLsNItse6oDtJ-42" value="$$&lt;br&gt;\overline {a \cdot b}&lt;br&gt;$$" style="text;html=1;align=center;verticalAlign=middle;resizable=0;points=[];autosize=1;strokeColor=none;fillColor=none;fontColor=#A3BE8C;connectable=0;" parent="1" vertex="1">
          <mxGeometry x="840" y="260" width="130" height="60" as="geometry" />
        </mxCell>
        <mxCell id="IYB7c07VLsNItse6oDtJ-43" value="" style="verticalLabelPosition=bottom;shadow=0;dashed=0;align=center;html=1;verticalAlign=top;shape=mxgraph.electrical.logic_gates.logic_gate;operation=and;negating=1;negSize=0.15;" parent="1" vertex="1">
          <mxGeometry x="480" y="520" width="70" height="40" as="geometry" />
        </mxCell>
        <mxCell id="IYB7c07VLsNItse6oDtJ-44" value="$$&lt;br&gt;a&lt;br&gt;$$" style="text;html=1;align=center;verticalAlign=middle;resizable=0;points=[];autosize=1;strokeColor=none;fillColor=none;fontColor=#5E81AC;connectable=0;" parent="1" vertex="1">
          <mxGeometry x="280" y="470" width="40" height="60" as="geometry" />
        </mxCell>
        <mxCell id="IYB7c07VLsNItse6oDtJ-45" style="edgeStyle=orthogonalEdgeStyle;rounded=0;orthogonalLoop=1;jettySize=auto;html=1;exitX=0;exitY=0.5;exitDx=0;exitDy=0;exitPerimeter=0;endArrow=none;endFill=0;strokeColor=#5E81AC;fontColor=#5E81AC;" parent="1" edge="1">
          <mxGeometry relative="1" as="geometry">
            <mxPoint x="310.03" y="500" as="targetPoint" />
            <mxPoint x="360.03" y="500" as="sourcePoint" />
          </mxGeometry>
        </mxCell>
        <mxCell id="IYB7c07VLsNItse6oDtJ-47" value="$$&lt;br&gt;b&lt;br&gt;$$" style="text;html=1;align=center;verticalAlign=middle;resizable=0;points=[];autosize=1;strokeColor=none;fillColor=none;fontColor=#EBCB8B;connectable=0;" parent="1" vertex="1">
          <mxGeometry x="280" y="550" width="40" height="60" as="geometry" />
        </mxCell>
        <mxCell id="IYB7c07VLsNItse6oDtJ-48" style="edgeStyle=orthogonalEdgeStyle;rounded=0;orthogonalLoop=1;jettySize=auto;html=1;exitX=0;exitY=0.5;exitDx=0;exitDy=0;exitPerimeter=0;endArrow=none;endFill=0;strokeColor=#EBCB8B;fontColor=#EBCB8B;" parent="1" edge="1">
          <mxGeometry relative="1" as="geometry">
            <mxPoint x="310.03" y="580" as="targetPoint" />
            <mxPoint x="360.03" y="580" as="sourcePoint" />
          </mxGeometry>
        </mxCell>
        <mxCell id="IYB7c07VLsNItse6oDtJ-51" style="edgeStyle=orthogonalEdgeStyle;rounded=0;orthogonalLoop=1;jettySize=auto;html=1;exitX=1;exitY=0.5;exitDx=0;exitDy=0;exitPerimeter=0;endArrow=none;endFill=0;strokeColor=#EA6B66;" parent="1" edge="1">
          <mxGeometry relative="1" as="geometry">
            <mxPoint x="600" y="540" as="targetPoint" />
            <mxPoint x="550" y="540" as="sourcePoint" />
          </mxGeometry>
        </mxCell>
        <mxCell id="IYB7c07VLsNItse6oDtJ-57" value="" style="verticalLabelPosition=bottom;shadow=0;dashed=0;align=center;html=1;verticalAlign=top;shape=mxgraph.electrical.logic_gates.logic_gate;operation=and;negating=1;negSize=0.15;" parent="1" vertex="1">
          <mxGeometry x="370" y="560" width="70" height="40" as="geometry" />
        </mxCell>
        <mxCell id="IYB7c07VLsNItse6oDtJ-58" style="edgeStyle=orthogonalEdgeStyle;rounded=0;orthogonalLoop=1;jettySize=auto;html=1;exitX=0;exitY=0.25;exitDx=0;exitDy=0;exitPerimeter=0;endArrow=none;endFill=0;strokeColor=#EBCB8B;fontColor=#5E81AC;entryX=0;entryY=0.75;entryDx=0;entryDy=0;entryPerimeter=0;" parent="1" source="IYB7c07VLsNItse6oDtJ-57" target="IYB7c07VLsNItse6oDtJ-57" edge="1">
          <mxGeometry relative="1" as="geometry">
            <mxPoint x="330" y="590" as="targetPoint" />
            <mxPoint x="380" y="590" as="sourcePoint" />
            <Array as="points">
              <mxPoint x="360" y="570" />
              <mxPoint x="360" y="590" />
            </Array>
          </mxGeometry>
        </mxCell>
        <mxCell id="IYB7c07VLsNItse6oDtJ-61" value="" style="verticalLabelPosition=bottom;shadow=0;dashed=0;align=center;html=1;verticalAlign=top;shape=mxgraph.electrical.logic_gates.logic_gate;operation=and;negating=1;negSize=0.15;" parent="1" vertex="1">
          <mxGeometry x="370" y="480" width="70" height="40" as="geometry" />
        </mxCell>
        <mxCell id="IYB7c07VLsNItse6oDtJ-62" style="edgeStyle=orthogonalEdgeStyle;rounded=0;orthogonalLoop=1;jettySize=auto;html=1;exitX=0;exitY=0.25;exitDx=0;exitDy=0;exitPerimeter=0;endArrow=none;endFill=0;strokeColor=#5E81AC;fontColor=#5E81AC;entryX=0;entryY=0.75;entryDx=0;entryDy=0;entryPerimeter=0;" parent="1" source="IYB7c07VLsNItse6oDtJ-61" target="IYB7c07VLsNItse6oDtJ-61" edge="1">
          <mxGeometry relative="1" as="geometry">
            <mxPoint x="330" y="510" as="targetPoint" />
            <mxPoint x="380" y="510" as="sourcePoint" />
            <Array as="points">
              <mxPoint x="360" y="490" />
              <mxPoint x="360" y="510" />
            </Array>
          </mxGeometry>
        </mxCell>
        <mxCell id="IYB7c07VLsNItse6oDtJ-63" style="edgeStyle=orthogonalEdgeStyle;rounded=0;orthogonalLoop=1;jettySize=auto;html=1;exitX=1;exitY=0.5;exitDx=0;exitDy=0;exitPerimeter=0;entryX=0;entryY=0.25;entryDx=0;entryDy=0;entryPerimeter=0;endArrow=none;endFill=0;strokeColor=#88C0D0;" parent="1" source="IYB7c07VLsNItse6oDtJ-61" target="IYB7c07VLsNItse6oDtJ-43" edge="1">
          <mxGeometry relative="1" as="geometry" />
        </mxCell>
        <mxCell id="IYB7c07VLsNItse6oDtJ-64" style="edgeStyle=orthogonalEdgeStyle;rounded=0;orthogonalLoop=1;jettySize=auto;html=1;exitX=1;exitY=0.5;exitDx=0;exitDy=0;exitPerimeter=0;entryX=0;entryY=0.75;entryDx=0;entryDy=0;entryPerimeter=0;endArrow=none;endFill=0;strokeColor=#D08770;" parent="1" source="IYB7c07VLsNItse6oDtJ-57" target="IYB7c07VLsNItse6oDtJ-43" edge="1">
          <mxGeometry relative="1" as="geometry" />
        </mxCell>
        <mxCell id="IYB7c07VLsNItse6oDtJ-65" value="$$&lt;br&gt;\overline a&lt;br&gt;$$" style="text;html=1;align=center;verticalAlign=middle;resizable=0;points=[];autosize=1;strokeColor=none;fillColor=none;fontColor=#88C0D0;connectable=0;" parent="1" vertex="1">
          <mxGeometry x="410" y="460" width="80" height="60" as="geometry" />
        </mxCell>
        <mxCell id="IYB7c07VLsNItse6oDtJ-66" value="$$&lt;br&gt;\overline b&lt;br&gt;$$" style="text;html=1;align=center;verticalAlign=middle;resizable=0;points=[];autosize=1;strokeColor=none;fillColor=none;fontColor=#D08770;connectable=0;" parent="1" vertex="1">
          <mxGeometry x="410" y="540" width="80" height="60" as="geometry" />
        </mxCell>
      </root>
    </mxGraphModel>
  </diagram>
  <diagram id="zUUO4BEPSys1aDmjBDCs" name="NOR">
    <mxGraphModel dx="669" dy="384" grid="1" gridSize="10" guides="1" tooltips="1" connect="1" arrows="1" fold="1" page="1" pageScale="1" pageWidth="1654" pageHeight="1169" math="1" shadow="0">
      <root>
        <mxCell id="0" />
        <mxCell id="1" parent="0" />
        <mxCell id="p8JG7K97WS3X5UrZGpKr-55" value="$$&lt;br&gt;\overline b&lt;br&gt;$$" style="text;html=1;align=center;verticalAlign=middle;resizable=0;points=[];autosize=1;strokeColor=none;fillColor=none;fontColor=#D08770;connectable=0;" parent="1" vertex="1">
          <mxGeometry x="870" y="280" width="80" height="60" as="geometry" />
        </mxCell>
        <mxCell id="p8JG7K97WS3X5UrZGpKr-1" value="&lt;font color=&quot;#ea6b66&quot;&gt;$$&lt;br&gt;\overline {\overline&amp;nbsp;a + \overline&amp;nbsp;b}&lt;br&gt;= a \cdot b&lt;br&gt;$$&lt;/font&gt;" style="text;html=1;align=center;verticalAlign=middle;resizable=0;points=[];autosize=1;strokeColor=none;fillColor=none;fontColor=#A3BE8C;connectable=0;" parent="1" vertex="1">
          <mxGeometry x="960" y="230" width="200" height="70" as="geometry" />
        </mxCell>
        <mxCell id="p8JG7K97WS3X5UrZGpKr-54" value="$$&lt;br&gt;\overline a&lt;br&gt;$$" style="text;html=1;align=center;verticalAlign=middle;resizable=0;points=[];autosize=1;strokeColor=none;fillColor=none;fontColor=#88C0D0;connectable=0;" parent="1" vertex="1">
          <mxGeometry x="870" y="200" width="80" height="60" as="geometry" />
        </mxCell>
        <mxCell id="p8JG7K97WS3X5UrZGpKr-57" value="" style="verticalLabelPosition=bottom;shadow=0;dashed=0;align=center;html=1;verticalAlign=top;shape=mxgraph.electrical.logic_gates.logic_gate;operation=or;negating=1;negSize=0.15;" parent="1" vertex="1">
          <mxGeometry x="830" y="220" width="70" height="40" as="geometry" />
        </mxCell>
        <mxCell id="p8JG7K97WS3X5UrZGpKr-58" value="" style="verticalLabelPosition=bottom;shadow=0;dashed=0;align=center;html=1;verticalAlign=top;shape=mxgraph.electrical.logic_gates.logic_gate;operation=or;negating=1;negSize=0.15;" parent="1" vertex="1">
          <mxGeometry x="830" y="300" width="70" height="40" as="geometry" />
        </mxCell>
        <mxCell id="p8JG7K97WS3X5UrZGpKr-59" value="" style="verticalLabelPosition=bottom;shadow=0;dashed=0;align=center;html=1;verticalAlign=top;shape=mxgraph.electrical.logic_gates.logic_gate;operation=or;negating=1;negSize=0.15;" parent="1" vertex="1">
          <mxGeometry x="940" y="260" width="70" height="40" as="geometry" />
        </mxCell>
        <mxCell id="p8JG7K97WS3X5UrZGpKr-62" value="" style="verticalLabelPosition=bottom;shadow=0;dashed=0;align=center;html=1;verticalAlign=top;shape=mxgraph.electrical.logic_gates.logic_gate;operation=or;negating=1;negSize=0.15;" parent="1" vertex="1">
          <mxGeometry x="430" y="370" width="70" height="40" as="geometry" />
        </mxCell>
        <mxCell id="p8JG7K97WS3X5UrZGpKr-63" value="" style="verticalLabelPosition=bottom;shadow=0;dashed=0;align=center;html=1;verticalAlign=top;shape=mxgraph.electrical.logic_gates.logic_gate;operation=or;negating=1;negSize=0.15;" parent="1" vertex="1">
          <mxGeometry x="559.97" y="370" width="70" height="40" as="geometry" />
        </mxCell>
        <mxCell id="p8JG7K97WS3X5UrZGpKr-56" value="" style="verticalLabelPosition=bottom;shadow=0;dashed=0;align=center;html=1;verticalAlign=top;shape=mxgraph.electrical.logic_gates.logic_gate;operation=or;negating=1;negSize=0.15;" parent="1" vertex="1">
          <mxGeometry x="210" y="280" width="70" height="40" as="geometry" />
        </mxCell>
        <mxCell id="p8JG7K97WS3X5UrZGpKr-4" value="$$&lt;br&gt;a&lt;br&gt;$$" style="text;html=1;align=center;verticalAlign=middle;resizable=0;points=[];autosize=1;strokeColor=none;fillColor=none;fontColor=#5E81AC;connectable=0;" parent="1" vertex="1">
          <mxGeometry x="130" y="270" width="40" height="60" as="geometry" />
        </mxCell>
        <mxCell id="p8JG7K97WS3X5UrZGpKr-5" style="edgeStyle=orthogonalEdgeStyle;rounded=0;orthogonalLoop=1;jettySize=auto;html=1;endArrow=none;endFill=0;strokeColor=#5E81AC;fontColor=#5E81AC;" parent="1" edge="1">
          <mxGeometry relative="1" as="geometry">
            <mxPoint x="160" y="300" as="targetPoint" />
            <mxPoint x="200" y="300" as="sourcePoint" />
            <Array as="points">
              <mxPoint x="181" y="300" />
              <mxPoint x="181" y="300" />
            </Array>
          </mxGeometry>
        </mxCell>
        <mxCell id="p8JG7K97WS3X5UrZGpKr-6" style="edgeStyle=orthogonalEdgeStyle;rounded=0;orthogonalLoop=1;jettySize=auto;html=1;exitX=1;exitY=0.5;exitDx=0;exitDy=0;exitPerimeter=0;endArrow=none;endFill=0;strokeColor=#EA6B66;" parent="1" edge="1">
          <mxGeometry relative="1" as="geometry">
            <mxPoint x="330" y="300" as="targetPoint" />
            <mxPoint x="280" y="300" as="sourcePoint" />
          </mxGeometry>
        </mxCell>
        <mxCell id="p8JG7K97WS3X5UrZGpKr-7" value="$$&lt;br&gt;\overline a&lt;br&gt;$$" style="text;html=1;align=center;verticalAlign=middle;resizable=0;points=[];autosize=1;strokeColor=none;fillColor=none;fontColor=#EA6B66;connectable=0;" parent="1" vertex="1">
          <mxGeometry x="300" y="270" width="80" height="60" as="geometry" />
        </mxCell>
        <mxCell id="p8JG7K97WS3X5UrZGpKr-8" value="" style="verticalLabelPosition=bottom;shadow=0;dashed=0;align=center;html=1;verticalAlign=top;shape=mxgraph.electrical.logic_gates.logic_gate;operation=and;" parent="1" vertex="1">
          <mxGeometry x="810" y="120" width="70" height="40" as="geometry" />
        </mxCell>
        <mxCell id="p8JG7K97WS3X5UrZGpKr-9" value="$$&lt;br&gt;a&lt;br&gt;$$" style="text;html=1;align=center;verticalAlign=middle;resizable=0;points=[];autosize=1;strokeColor=none;fillColor=none;fontColor=#5E81AC;connectable=0;" parent="1" vertex="1">
          <mxGeometry x="130" y="110" width="40" height="60" as="geometry" />
        </mxCell>
        <mxCell id="p8JG7K97WS3X5UrZGpKr-10" style="edgeStyle=orthogonalEdgeStyle;rounded=0;orthogonalLoop=1;jettySize=auto;html=1;exitX=0;exitY=0.5;exitDx=0;exitDy=0;exitPerimeter=0;endArrow=none;endFill=0;strokeColor=#5E81AC;" parent="1" source="p8JG7K97WS3X5UrZGpKr-12" edge="1">
          <mxGeometry relative="1" as="geometry">
            <mxPoint x="160" y="140" as="targetPoint" />
          </mxGeometry>
        </mxCell>
        <mxCell id="p8JG7K97WS3X5UrZGpKr-11" style="edgeStyle=orthogonalEdgeStyle;rounded=0;orthogonalLoop=1;jettySize=auto;html=1;exitX=1;exitY=0.5;exitDx=0;exitDy=0;exitPerimeter=0;endArrow=none;endFill=0;strokeColor=#EA6B66;" parent="1" source="p8JG7K97WS3X5UrZGpKr-12" edge="1">
          <mxGeometry relative="1" as="geometry">
            <mxPoint x="330" y="140" as="targetPoint" />
          </mxGeometry>
        </mxCell>
        <mxCell id="p8JG7K97WS3X5UrZGpKr-12" value="" style="verticalLabelPosition=bottom;shadow=0;dashed=0;align=center;html=1;verticalAlign=top;shape=mxgraph.electrical.logic_gates.inverter_2" parent="1" vertex="1">
          <mxGeometry x="210" y="120" width="70" height="40" as="geometry" />
        </mxCell>
        <mxCell id="p8JG7K97WS3X5UrZGpKr-13" value="$$&lt;br&gt;\overline a&lt;br&gt;$$" style="text;html=1;align=center;verticalAlign=middle;resizable=0;points=[];autosize=1;strokeColor=none;fillColor=none;fontColor=#EA6B66;connectable=0;" parent="1" vertex="1">
          <mxGeometry x="300" y="110" width="80" height="60" as="geometry" />
        </mxCell>
        <mxCell id="p8JG7K97WS3X5UrZGpKr-14" value="$$&lt;br&gt;a&lt;br&gt;$$" style="text;html=1;align=center;verticalAlign=middle;resizable=0;points=[];autosize=1;strokeColor=none;fillColor=none;fontColor=#5E81AC;connectable=0;" parent="1" vertex="1">
          <mxGeometry x="410" y="100" width="40" height="60" as="geometry" />
        </mxCell>
        <mxCell id="p8JG7K97WS3X5UrZGpKr-15" style="edgeStyle=orthogonalEdgeStyle;rounded=0;orthogonalLoop=1;jettySize=auto;html=1;exitX=0;exitY=0.5;exitDx=0;exitDy=0;exitPerimeter=0;endArrow=none;endFill=0;strokeColor=#5E81AC;fontColor=#5E81AC;" parent="1" edge="1">
          <mxGeometry relative="1" as="geometry">
            <mxPoint x="440" y="130" as="targetPoint" />
            <mxPoint x="490" y="130" as="sourcePoint" />
          </mxGeometry>
        </mxCell>
        <mxCell id="p8JG7K97WS3X5UrZGpKr-16" style="edgeStyle=orthogonalEdgeStyle;rounded=0;orthogonalLoop=1;jettySize=auto;html=1;exitX=1;exitY=0.5;exitDx=0;exitDy=0;exitPerimeter=0;endArrow=none;endFill=0;strokeColor=#EA6B66;" parent="1" edge="1">
          <mxGeometry relative="1" as="geometry">
            <mxPoint x="610" y="140" as="targetPoint" />
            <mxPoint x="560" y="140" as="sourcePoint" />
          </mxGeometry>
        </mxCell>
        <mxCell id="p8JG7K97WS3X5UrZGpKr-17" value="$$&lt;br&gt;a + b&lt;br&gt;$$" style="text;html=1;align=center;verticalAlign=middle;resizable=0;points=[];autosize=1;strokeColor=none;fillColor=none;fontColor=#EA6B66;connectable=0;" parent="1" vertex="1">
          <mxGeometry x="604" y="110" width="50" height="60" as="geometry" />
        </mxCell>
        <mxCell id="p8JG7K97WS3X5UrZGpKr-18" value="" style="verticalLabelPosition=bottom;shadow=0;dashed=0;align=center;html=1;verticalAlign=top;shape=mxgraph.electrical.logic_gates.logic_gate;operation=or;" parent="1" vertex="1">
          <mxGeometry x="490" y="120" width="70" height="40" as="geometry" />
        </mxCell>
        <mxCell id="p8JG7K97WS3X5UrZGpKr-19" value="$$&lt;br&gt;b&lt;br&gt;$$" style="text;html=1;align=center;verticalAlign=middle;resizable=0;points=[];autosize=1;strokeColor=none;fillColor=none;fontColor=#EBCB8B;connectable=0;" parent="1" vertex="1">
          <mxGeometry x="410" y="120" width="40" height="60" as="geometry" />
        </mxCell>
        <mxCell id="p8JG7K97WS3X5UrZGpKr-20" style="edgeStyle=orthogonalEdgeStyle;rounded=0;orthogonalLoop=1;jettySize=auto;html=1;exitX=0;exitY=0.5;exitDx=0;exitDy=0;exitPerimeter=0;endArrow=none;endFill=0;strokeColor=#EBCB8B;fontColor=#EBCB8B;" parent="1" edge="1">
          <mxGeometry relative="1" as="geometry">
            <mxPoint x="440" y="150" as="targetPoint" />
            <mxPoint x="490" y="150" as="sourcePoint" />
          </mxGeometry>
        </mxCell>
        <mxCell id="p8JG7K97WS3X5UrZGpKr-21" value="$$&lt;br&gt;a&lt;br&gt;$$" style="text;html=1;align=center;verticalAlign=middle;resizable=0;points=[];autosize=1;strokeColor=none;fillColor=none;fontColor=#5E81AC;connectable=0;" parent="1" vertex="1">
          <mxGeometry x="730" y="100" width="40" height="60" as="geometry" />
        </mxCell>
        <mxCell id="p8JG7K97WS3X5UrZGpKr-22" style="edgeStyle=orthogonalEdgeStyle;rounded=0;orthogonalLoop=1;jettySize=auto;html=1;exitX=0;exitY=0.5;exitDx=0;exitDy=0;exitPerimeter=0;endArrow=none;endFill=0;strokeColor=#5E81AC;fontColor=#5E81AC;" parent="1" edge="1">
          <mxGeometry relative="1" as="geometry">
            <mxPoint x="760" y="130" as="targetPoint" />
            <mxPoint x="810" y="130" as="sourcePoint" />
          </mxGeometry>
        </mxCell>
        <mxCell id="p8JG7K97WS3X5UrZGpKr-23" style="edgeStyle=orthogonalEdgeStyle;rounded=0;orthogonalLoop=1;jettySize=auto;html=1;exitX=1;exitY=0.5;exitDx=0;exitDy=0;exitPerimeter=0;endArrow=none;endFill=0;strokeColor=#EA6B66;" parent="1" edge="1">
          <mxGeometry relative="1" as="geometry">
            <mxPoint x="930" y="140" as="targetPoint" />
            <mxPoint x="880" y="140" as="sourcePoint" />
          </mxGeometry>
        </mxCell>
        <mxCell id="p8JG7K97WS3X5UrZGpKr-24" value="$$&lt;br&gt;a \cdot b&lt;br&gt;$$" style="text;html=1;align=center;verticalAlign=middle;resizable=0;points=[];autosize=1;strokeColor=none;fillColor=none;fontColor=#EA6B66;connectable=0;" parent="1" vertex="1">
          <mxGeometry x="910" y="110" width="70" height="60" as="geometry" />
        </mxCell>
        <mxCell id="p8JG7K97WS3X5UrZGpKr-25" value="$$&lt;br&gt;b&lt;br&gt;$$" style="text;html=1;align=center;verticalAlign=middle;resizable=0;points=[];autosize=1;strokeColor=none;fillColor=none;fontColor=#EBCB8B;connectable=0;" parent="1" vertex="1">
          <mxGeometry x="730" y="120" width="40" height="60" as="geometry" />
        </mxCell>
        <mxCell id="p8JG7K97WS3X5UrZGpKr-26" style="edgeStyle=orthogonalEdgeStyle;rounded=0;orthogonalLoop=1;jettySize=auto;html=1;exitX=0;exitY=0.5;exitDx=0;exitDy=0;exitPerimeter=0;endArrow=none;endFill=0;strokeColor=#EBCB8B;fontColor=#EBCB8B;" parent="1" edge="1">
          <mxGeometry relative="1" as="geometry">
            <mxPoint x="760" y="150" as="targetPoint" />
            <mxPoint x="810" y="150" as="sourcePoint" />
          </mxGeometry>
        </mxCell>
        <mxCell id="p8JG7K97WS3X5UrZGpKr-27" style="edgeStyle=orthogonalEdgeStyle;rounded=0;orthogonalLoop=1;jettySize=auto;html=1;exitX=0;exitY=0.25;exitDx=0;exitDy=0;exitPerimeter=0;endArrow=none;endFill=0;strokeColor=#5E81AC;fontColor=#5E81AC;entryX=0;entryY=0.75;entryDx=0;entryDy=0;entryPerimeter=0;" parent="1" edge="1">
          <mxGeometry relative="1" as="geometry">
            <mxPoint x="210" y="310.00000000000006" as="targetPoint" />
            <mxPoint x="210" y="290.00000000000006" as="sourcePoint" />
            <Array as="points">
              <mxPoint x="200" y="290" />
              <mxPoint x="200" y="310" />
            </Array>
          </mxGeometry>
        </mxCell>
        <mxCell id="p8JG7K97WS3X5UrZGpKr-28" value="$$&lt;br&gt;a&lt;br&gt;$$" style="text;html=1;align=center;verticalAlign=middle;resizable=0;points=[];autosize=1;strokeColor=none;fillColor=none;fontColor=#5E81AC;connectable=0;" parent="1" vertex="1">
          <mxGeometry x="350" y="350" width="40" height="60" as="geometry" />
        </mxCell>
        <mxCell id="p8JG7K97WS3X5UrZGpKr-29" style="edgeStyle=orthogonalEdgeStyle;rounded=0;orthogonalLoop=1;jettySize=auto;html=1;exitX=0;exitY=0.5;exitDx=0;exitDy=0;exitPerimeter=0;endArrow=none;endFill=0;strokeColor=#5E81AC;fontColor=#5E81AC;" parent="1" edge="1">
          <mxGeometry relative="1" as="geometry">
            <mxPoint x="380" y="380" as="targetPoint" />
            <mxPoint x="430" y="380" as="sourcePoint" />
          </mxGeometry>
        </mxCell>
        <mxCell id="p8JG7K97WS3X5UrZGpKr-30" style="edgeStyle=orthogonalEdgeStyle;rounded=0;orthogonalLoop=1;jettySize=auto;html=1;exitX=1;exitY=0.5;exitDx=0;exitDy=0;exitPerimeter=0;endArrow=none;endFill=0;strokeColor=#A3BE8C;" parent="1" edge="1">
          <mxGeometry relative="1" as="geometry">
            <mxPoint x="550" y="390" as="targetPoint" />
            <mxPoint x="500" y="390" as="sourcePoint" />
          </mxGeometry>
        </mxCell>
        <mxCell id="p8JG7K97WS3X5UrZGpKr-31" value="$$&lt;br&gt;b&lt;br&gt;$$" style="text;html=1;align=center;verticalAlign=middle;resizable=0;points=[];autosize=1;strokeColor=none;fillColor=none;fontColor=#EBCB8B;connectable=0;" parent="1" vertex="1">
          <mxGeometry x="350" y="370" width="40" height="60" as="geometry" />
        </mxCell>
        <mxCell id="p8JG7K97WS3X5UrZGpKr-32" style="edgeStyle=orthogonalEdgeStyle;rounded=0;orthogonalLoop=1;jettySize=auto;html=1;exitX=0;exitY=0.5;exitDx=0;exitDy=0;exitPerimeter=0;endArrow=none;endFill=0;strokeColor=#EBCB8B;fontColor=#EBCB8B;" parent="1" edge="1">
          <mxGeometry relative="1" as="geometry">
            <mxPoint x="380" y="400" as="targetPoint" />
            <mxPoint x="430" y="400" as="sourcePoint" />
          </mxGeometry>
        </mxCell>
        <mxCell id="p8JG7K97WS3X5UrZGpKr-34" style="edgeStyle=orthogonalEdgeStyle;rounded=0;orthogonalLoop=1;jettySize=auto;html=1;exitX=0;exitY=0.25;exitDx=0;exitDy=0;exitPerimeter=0;endArrow=none;endFill=0;strokeColor=#A3BE8C;fontColor=#5E81AC;entryX=0;entryY=0.75;entryDx=0;entryDy=0;entryPerimeter=0;" parent="1" edge="1">
          <mxGeometry relative="1" as="geometry">
            <mxPoint x="559.9700000000003" y="400" as="targetPoint" />
            <mxPoint x="559.9700000000003" y="380" as="sourcePoint" />
            <Array as="points">
              <mxPoint x="549.97" y="380" />
              <mxPoint x="549.97" y="400" />
            </Array>
          </mxGeometry>
        </mxCell>
        <mxCell id="p8JG7K97WS3X5UrZGpKr-35" style="edgeStyle=orthogonalEdgeStyle;rounded=0;orthogonalLoop=1;jettySize=auto;html=1;exitX=1;exitY=0.5;exitDx=0;exitDy=0;exitPerimeter=0;endArrow=none;endFill=0;strokeColor=#EA6B66;" parent="1" edge="1">
          <mxGeometry relative="1" as="geometry">
            <mxPoint x="679.97" y="390" as="targetPoint" />
            <mxPoint x="629.97" y="390" as="sourcePoint" />
          </mxGeometry>
        </mxCell>
        <mxCell id="p8JG7K97WS3X5UrZGpKr-36" value="$$&lt;br&gt;a + b&lt;br&gt;$$" style="text;html=1;align=center;verticalAlign=middle;resizable=0;points=[];autosize=1;strokeColor=none;fillColor=none;fontColor=#EA6B66;connectable=0;" parent="1" vertex="1">
          <mxGeometry x="674" y="360" width="50" height="60" as="geometry" />
        </mxCell>
        <mxCell id="p8JG7K97WS3X5UrZGpKr-37" value="$$&lt;br&gt;\overline {a + b}&lt;br&gt;$$" style="text;html=1;align=center;verticalAlign=middle;resizable=0;points=[];autosize=1;strokeColor=none;fillColor=none;fontColor=#A3BE8C;connectable=0;" parent="1" vertex="1">
          <mxGeometry x="470" y="350" width="110" height="60" as="geometry" />
        </mxCell>
        <mxCell id="p8JG7K97WS3X5UrZGpKr-39" value="$$&lt;br&gt;a&lt;br&gt;$$" style="text;html=1;align=center;verticalAlign=middle;resizable=0;points=[];autosize=1;strokeColor=none;fillColor=none;fontColor=#5E81AC;connectable=0;" parent="1" vertex="1">
          <mxGeometry x="740" y="210" width="40" height="60" as="geometry" />
        </mxCell>
        <mxCell id="p8JG7K97WS3X5UrZGpKr-40" style="edgeStyle=orthogonalEdgeStyle;rounded=0;orthogonalLoop=1;jettySize=auto;html=1;exitX=0;exitY=0.5;exitDx=0;exitDy=0;exitPerimeter=0;endArrow=none;endFill=0;strokeColor=#5E81AC;fontColor=#5E81AC;" parent="1" edge="1">
          <mxGeometry relative="1" as="geometry">
            <mxPoint x="770.03" y="240" as="targetPoint" />
            <mxPoint x="820.03" y="240" as="sourcePoint" />
          </mxGeometry>
        </mxCell>
        <mxCell id="p8JG7K97WS3X5UrZGpKr-42" value="$$&lt;br&gt;b&lt;br&gt;$$" style="text;html=1;align=center;verticalAlign=middle;resizable=0;points=[];autosize=1;strokeColor=none;fillColor=none;fontColor=#EBCB8B;connectable=0;" parent="1" vertex="1">
          <mxGeometry x="740" y="290" width="40" height="60" as="geometry" />
        </mxCell>
        <mxCell id="p8JG7K97WS3X5UrZGpKr-43" style="edgeStyle=orthogonalEdgeStyle;rounded=0;orthogonalLoop=1;jettySize=auto;html=1;exitX=0;exitY=0.5;exitDx=0;exitDy=0;exitPerimeter=0;endArrow=none;endFill=0;strokeColor=#EBCB8B;fontColor=#EBCB8B;" parent="1" edge="1">
          <mxGeometry relative="1" as="geometry">
            <mxPoint x="770.03" y="320" as="targetPoint" />
            <mxPoint x="820.03" y="320" as="sourcePoint" />
          </mxGeometry>
        </mxCell>
        <mxCell id="p8JG7K97WS3X5UrZGpKr-46" style="edgeStyle=orthogonalEdgeStyle;rounded=0;orthogonalLoop=1;jettySize=auto;html=1;exitX=1;exitY=0.5;exitDx=0;exitDy=0;exitPerimeter=0;endArrow=none;endFill=0;strokeColor=#EA6B66;" parent="1" edge="1">
          <mxGeometry relative="1" as="geometry">
            <mxPoint x="1060" y="280" as="targetPoint" />
            <mxPoint x="1010" y="280" as="sourcePoint" />
          </mxGeometry>
        </mxCell>
        <mxCell id="p8JG7K97WS3X5UrZGpKr-49" style="edgeStyle=orthogonalEdgeStyle;rounded=0;orthogonalLoop=1;jettySize=auto;html=1;exitX=0;exitY=0.25;exitDx=0;exitDy=0;exitPerimeter=0;endArrow=none;endFill=0;strokeColor=#EBCB8B;fontColor=#5E81AC;entryX=0;entryY=0.75;entryDx=0;entryDy=0;entryPerimeter=0;" parent="1" edge="1">
          <mxGeometry relative="1" as="geometry">
            <mxPoint x="830" y="330" as="targetPoint" />
            <mxPoint x="830" y="310" as="sourcePoint" />
            <Array as="points">
              <mxPoint x="820" y="310" />
              <mxPoint x="820" y="330" />
            </Array>
          </mxGeometry>
        </mxCell>
        <mxCell id="p8JG7K97WS3X5UrZGpKr-51" style="edgeStyle=orthogonalEdgeStyle;rounded=0;orthogonalLoop=1;jettySize=auto;html=1;exitX=0;exitY=0.25;exitDx=0;exitDy=0;exitPerimeter=0;endArrow=none;endFill=0;strokeColor=#5E81AC;fontColor=#5E81AC;entryX=0;entryY=0.75;entryDx=0;entryDy=0;entryPerimeter=0;" parent="1" edge="1">
          <mxGeometry relative="1" as="geometry">
            <mxPoint x="830" y="250" as="targetPoint" />
            <mxPoint x="830" y="230" as="sourcePoint" />
            <Array as="points">
              <mxPoint x="820" y="230" />
              <mxPoint x="820" y="250" />
            </Array>
          </mxGeometry>
        </mxCell>
        <mxCell id="p8JG7K97WS3X5UrZGpKr-65" style="edgeStyle=orthogonalEdgeStyle;rounded=0;orthogonalLoop=1;jettySize=auto;html=1;exitX=1;exitY=0.5;exitDx=0;exitDy=0;exitPerimeter=0;entryX=0;entryY=0.25;entryDx=0;entryDy=0;entryPerimeter=0;endArrow=none;endFill=0;strokeColor=#88C0D0;" parent="1" source="p8JG7K97WS3X5UrZGpKr-57" target="p8JG7K97WS3X5UrZGpKr-59" edge="1">
          <mxGeometry relative="1" as="geometry" />
        </mxCell>
        <mxCell id="p8JG7K97WS3X5UrZGpKr-66" style="edgeStyle=orthogonalEdgeStyle;rounded=0;orthogonalLoop=1;jettySize=auto;html=1;exitX=1;exitY=0.5;exitDx=0;exitDy=0;exitPerimeter=0;entryX=0;entryY=0.75;entryDx=0;entryDy=0;entryPerimeter=0;endArrow=none;endFill=0;strokeColor=#D08770;" parent="1" source="p8JG7K97WS3X5UrZGpKr-58" target="p8JG7K97WS3X5UrZGpKr-59" edge="1">
          <mxGeometry relative="1" as="geometry" />
        </mxCell>
      </root>
    </mxGraphModel>
  </diagram>
</mxfile>
